<svg id="Слой_1" data-name="Слой 1" xmlns="http://www.w3.org/2000/svg" viewBox="0 0 561 227.5">
  <defs>
    <style>
      .cls-1, .cls-2 {
        fill: #fff;
      }

      .cls-2 {
        stroke: #000;
        stroke-miterlimit: 10;
      }
    </style>
  </defs>
  <g>
    <path class="cls-1" d="M277.36,507.59l47.95-172h36l-47.95,172Z" transform="translate(-13.16 -280.59)"/>
    <path d="M360.61,336.09q-10.42,37.37-20.83,74.72Q326.36,459,312.94,507.09H278q13.35-47.86,26.69-95.74l21-75.26h34.92m1.32-1h-37q-24.12,86.51-48.23,173h37q24.12-86.49,48.23-173Z" transform="translate(-13.16 -280.59)"/>
  </g>
  <g>
    <polygon class="cls-1" points="317.16 37 326.92 2 362.88 2 353.12 37 317.16 37"/>
    <path d="M375.38,283.09l-4.67,16.73q-2.4,8.64-4.81,17.27H331q2.34-8.37,4.67-16.73,2.4-8.64,4.82-17.27h34.92m1.32-1h-37q-5,18-10,36h37q5-18,10-36Z" transform="translate(-13.16 -280.59)"/>
  </g>
  <path class="cls-2" d="M240.19,507.09" transform="translate(-13.16 -280.59)"/>
  <path class="cls-2" d="M159.19,298.09" transform="translate(-13.16 -280.59)"/>
  <path class="cls-2" d="M512.69,508.09" transform="translate(-13.16 -280.59)"/>
  <path class="cls-2" d="M431.69,299.09" transform="translate(-13.16 -280.59)"/>
  <path class="cls-2" d="M114.16,507.59" transform="translate(-13.16 -280.59)"/>
  <path class="cls-2" d="M33.16,298.59" transform="translate(-13.16 -280.59)"/>
  <g>
    <polygon class="cls-1" points="189.38 226.5 126.66 1.5 162.62 1.5 225.34 226.5 189.38 226.5"/>
    <path d="M175.4,282.59l62.44,224H202.92l-62.45-224H175.4m.76-1h-37l63,226h37l-63-226Z" transform="translate(-13.16 -280.59)"/>
  </g>
  <g>
    <polygon class="cls-1" points="189.66 226.5 252.38 1.5 288.34 1.5 225.62 226.5 189.66 226.5"/>
    <path d="M300.84,282.59l-62.44,224H203.47l62.45-224h34.92m1.32-1h-37l-63,226h37l63-226Z" transform="translate(-13.16 -280.59)"/>
  </g>
  <g>
    <polygon class="cls-1" points="63.38 225.5 0.66 0.5 36.62 0.5 99.34 225.5 63.38 225.5"/>
    <path d="M49.4,281.59l62.44,224H76.92l-62.45-224H49.4m.76-1h-37l63,226h37l-63-226Z" transform="translate(-13.16 -280.59)"/>
  </g>
  <g>
    <polygon class="cls-1" points="63.66 225.5 126.38 0.5 162.34 0.5 99.62 225.5 63.66 225.5"/>
    <path d="M174.84,281.59l-62.44,224H77.47l62.45-224h34.92m1.32-1h-37l-63,226h37l63-226Z" transform="translate(-13.16 -280.59)"/>
  </g>
  <g>
    <polygon class="cls-1" points="462.38 226.5 399.66 1.5 435.62 1.5 498.34 226.5 462.38 226.5"/>
    <path d="M448.4,282.59l62.44,224H475.92l-62.45-224H448.4m.76-1h-37l63,226h37l-63-226Z" transform="translate(-13.16 -280.59)"/>
  </g>
  <g>
    <polygon class="cls-1" points="336.66 226.5 399.38 1.5 435.34 1.5 372.62 226.5 336.66 226.5"/>
    <path d="M447.84,282.59l-62.44,224H350.47l62.45-224h34.92m1.32-1h-37l-63,226h37l63-226Z" transform="translate(-13.16 -280.59)"/>
  </g>
  <g>
    <polygon class="cls-1" points="461.66 226.5 524.38 1.5 560.34 1.5 497.62 226.5 461.66 226.5"/>
    <path d="M572.84,282.59l-62.44,224H475.47l62.45-224h34.92m1.32-1h-37l-63,226h37l63-226Z" transform="translate(-13.16 -280.59)"/>
  </g>
</svg>
