<svg id="Слой_1" data-name="Слой 1" xmlns="http://www.w3.org/2000/svg" viewBox="0 0 519 519"><defs><style>.cls-1{fill:#09c;}.cls-2{fill:#069;}</style></defs><path class="cls-1" d="M123,527v519H642V527Zm259.5,484c-124,0-224.5-100.51-224.5-224.5S258.51,562,382.5,562,607,662.51,607,786.5,506.49,1011,382.5,1011Z" transform="translate(-123 -527)"/><path class="cls-2" d="M382,550.5c-130.62,0-236.5,105.88-236.5,236.5S251.38,1023.5,382,1023.5,618.5,917.62,618.5,787,512.62,550.5,382,550.5ZM381.47,1016c-126.79,0-229.56-102.78-229.56-229.56S254.68,556.91,381.47,556.91,611,659.68,611,786.47,508.25,1016,381.47,1016Z" transform="translate(-123 -527)"/></svg>