<svg id="Слой_1" data-name="Слой 1" xmlns="http://www.w3.org/2000/svg" viewBox="0 0 440.02 440.02">
  <defs>
    <style>
      .cls-1, .cls-2 {
        fill: #fff;
      }

      .cls-2 {
        stroke: #000;
        stroke-miterlimit: 10;
        stroke-width: 3px;
      }
    </style>
  </defs>
  <g>
    <path class="cls-1" d="M935.77,780.51a218.51,218.51,0,0,1-16.15-436.4c5.52-.41,11.11-.62,16.61-.62a218.5,218.5,0,0,1,16.15,436.39C946.86,780.3,941.27,780.51,935.77,780.51Z" transform="translate(-715.99 -341.99)"/>
    <path d="M936.25,345a217,217,0,0,1,16,433.4c-5.48.41-11,.62-16.5.62a217,217,0,0,1-16-433.4c5.47-.41,11-.62,16.52-.62h0m0-3c-5.53,0-11.12.21-16.73.63-121.16,9.11-212,114.71-202.88,235.88C725.31,694.05,821.75,782,935.77,782c5.53,0,11.12-.21,16.73-.63,121.16-9.11,212-114.71,202.88-235.88C1146.69,430,1050.25,342,936.23,342Z" transform="translate(-715.99 -341.99)"/>
  </g>
  <circle class="cls-2" cx="220.9" cy="220.18" r="191.09"/>
  <g>
    <path class="cls-1" d="M937.16,741.75A179.3,179.3,0,0,1,758.57,575.94c-7.41-98.55,66.77-184.76,165.35-192.18,4.54-.34,9.12-.51,13.64-.51a179.24,179.24,0,0,1,13.24,358C946.27,741.57,941.68,741.75,937.16,741.75Z" transform="translate(-715.99 -341.99)"/>
    <path d="M937.57,384.75a177.74,177.74,0,0,1,13.12,355c-4.49.33-9,.51-13.53.51a177.74,177.74,0,0,1-13.12-355c4.49-.34,9-.51,13.53-.51h0m0-3q-6.82,0-13.75.52c-99.57,7.48-174.22,94.24-166.73,193.78,7.14,94.93,86.39,167.2,180.08,167.2q6.83,0,13.76-.52c99.56-7.49,174.21-94.25,166.73-193.79-7.14-94.93-86.39-167.19-180.09-167.19Z" transform="translate(-715.99 -341.99)"/>
  </g>
</svg>
